<svg xmlns="http://www.w3.org/2000/svg" width="42.056" height="36.542" viewBox="0 0 42.056 36.542"><g transform="translate(0)"><g transform="translate(0 9.813)"><path d="M264.582,227.4l-2.535,2.913-7.405,19.135.127,3.279L275.8,227.4l-1.489-1.4H266.6Z" transform="translate(-233.741 -226)" fill="#136ef1"/><path d="M31,227.4l21.028,25.327.274-2.9-7.708-19.914L42.215,227.4,40.376,226H32.928Z" transform="translate(-31 -226)" fill="#136ef1"/></g><g transform="translate(0 0)"><path d="M361.678,121l-2.243,1.682-3.873,7.745.508,1.787h11.215Z" transform="translate(-325.23 -121)" fill="#1689fc"/><path d="M36.607,121l2.454,2.1,3.966,7.932-.812,1.179H31Z" transform="translate(-31 -121)" fill="#1689fc"/></g><path d="M170.626,227.4l-9.813,25.327L151,227.4l2.467-1.4H167.99Z" transform="translate(-139.785 -216.187)" fill="#17ace8"/><path d="M265.813,227.4,256,252.729V226h7.177Z" transform="translate(-234.972 -216.187)" fill="#1689fc"/><g transform="translate(5.607 0)"><path d="M256,121l.225,1.86,7.245,8.28,2.343,1.075L271.42,121Z" transform="translate(-240.58 -121)" fill="#17ace8"/><path d="M106.42,121l.213,1.359-7.322,8.368-2.7,1.489L91,121Z" transform="translate(-91 -121)" fill="#17ace8"/></g><path d="M170.626,132.215H151L160.813,121Z" transform="translate(-139.785 -121)" fill="#cae8f9"/><path d="M265.813,132.215H256V121Z" transform="translate(-234.972 -121)" fill="#b7e0f6"/></g></svg>